<?xml version="1.0" encoding="utf-8" standalone="no"?>
<!DOCTYPE svg PUBLIC "-//W3C//DTD SVG 1.1//EN"
  "http://www.w3.org/Graphics/SVG/1.1/DTD/svg11.dtd">
<svg xmlns:xlink="http://www.w3.org/1999/xlink" width="526.79952pt" height="388.53776pt" viewBox="0 0 526.79952 388.53776" xmlns="http://www.w3.org/2000/svg" version="1.1">
 <metadata>
  <rdf:RDF xmlns:dc="http://purl.org/dc/elements/1.1/" xmlns:cc="http://creativecommons.org/ns#" xmlns:rdf="http://www.w3.org/1999/02/22-rdf-syntax-ns#">
   <cc:Work>
    <dc:type rdf:resource="http://purl.org/dc/dcmitype/StillImage"/>
    <dc:date>2026-04-15T21:27:38.824085</dc:date>
    <dc:format>image/svg+xml</dc:format>
    <dc:creator>
     <cc:Agent>
      <dc:title>Matplotlib v3.10.8, https://matplotlib.org/</dc:title>
     </cc:Agent>
    </dc:creator>
   </cc:Work>
  </rdf:RDF>
 </metadata>
 <defs>
  <style type="text/css">*{stroke-linejoin: round; stroke-linecap: butt}</style>
 </defs>
 <g id="figure_1">
  <g id="patch_1">
   <path d="M 0 388.53776 
L 526.79952 388.53776 
L 526.79952 0 
L 0 0 
z
" style="fill: #ffffff"/>
  </g>
  <g id="axes_1">
   <g id="patch_2">
    <path d="M 49.025 172.06483 
L 260.39952 172.06483 
L 260.39952 26.792381 
L 49.025 26.792381 
z
" style="fill: #ffffff"/>
   </g>
   <g id="matplotlib.axis_1">
    <g id="xtick_1">
     <g id="line2d_1">
      <defs>
       <path id="m0279ada43f" d="M 0 0 
L 0 3.5 
" style="stroke: #000000; stroke-width: 0.8"/>
      </defs>
      <g>
       <use xlink:href="#m0279ada43f" x="61.458795" y="172.06483" style="stroke: #000000; stroke-width: 0.8"/>
      </g>
     </g>
     <g id="text_1">
      <!-- 0.2 -->
      <g transform="translate(55.521295 185.553033) scale(0.095 -0.095)">
       <defs>
        <path id="STIXGeneral-Regular-30" d="M 3046 2112 
Q 3046 1683 2963 1302 
Q 2880 922 2717 602 
Q 2554 282 2266 96 
Q 1978 -90 1600 -90 
Q 1210 -90 915 108 
Q 621 307 461 640 
Q 301 973 227 1350 
Q 154 1728 154 2150 
Q 154 2746 301 3222 
Q 448 3699 790 4012 
Q 1133 4326 1626 4326 
Q 2253 4326 2649 3712 
Q 3046 3098 3046 2112 
z
M 2432 2080 
Q 2432 3091 2217 3625 
Q 2003 4160 1587 4160 
Q 1190 4160 979 3622 
Q 768 3085 768 2106 
Q 768 1120 979 598 
Q 1190 77 1600 77 
Q 2003 77 2217 598 
Q 2432 1120 2432 2080 
z
" transform="scale(0.015625)"/>
        <path id="STIXGeneral-Regular-2e" d="M 1158 275 
Q 1158 134 1052 32 
Q 947 -70 800 -70 
Q 653 -70 550 32 
Q 448 134 448 281 
Q 448 429 553 534 
Q 659 640 806 640 
Q 947 640 1052 531 
Q 1158 422 1158 275 
z
" transform="scale(0.015625)"/>
        <path id="STIXGeneral-Regular-32" d="M 3034 877 
L 2688 0 
L 186 0 
L 186 77 
L 1325 1286 
Q 1773 1754 1965 2144 
Q 2157 2534 2157 2950 
Q 2157 3379 1920 3616 
Q 1683 3853 1267 3853 
Q 922 3853 720 3673 
Q 518 3494 326 3021 
L 192 3053 
Q 301 3648 630 3987 
Q 960 4326 1523 4326 
Q 2054 4326 2380 4006 
Q 2707 3686 2707 3200 
Q 2707 2477 1888 1613 
L 832 486 
L 2330 486 
Q 2541 486 2665 569 
Q 2790 653 2944 915 
L 3034 877 
z
" transform="scale(0.015625)"/>
       </defs>
       <use xlink:href="#STIXGeneral-Regular-30"/>
       <use xlink:href="#STIXGeneral-Regular-2e" transform="translate(49.999985 0)"/>
       <use xlink:href="#STIXGeneral-Regular-32" transform="translate(74.999969 0)"/>
      </g>
     </g>
    </g>
    <g id="xtick_2">
     <g id="line2d_2">
      <g>
       <use xlink:href="#m0279ada43f" x="123.627772" y="172.06483" style="stroke: #000000; stroke-width: 0.8"/>
      </g>
     </g>
     <g id="text_2">
      <!-- 0.3 -->
      <g transform="translate(117.690272 185.553033) scale(0.095 -0.095)">
       <defs>
        <path id="STIXGeneral-Regular-33" d="M 390 3264 
L 288 3290 
Q 435 3770 748 4048 
Q 1062 4326 1542 4326 
Q 1990 4326 2265 4083 
Q 2541 3840 2541 3450 
Q 2541 2925 1946 2566 
Q 2298 2413 2477 2227 
Q 2758 1914 2758 1402 
Q 2758 890 2464 506 
Q 2246 211 1840 60 
Q 1434 -90 979 -90 
Q 262 -90 262 275 
Q 262 378 339 442 
Q 416 506 525 506 
Q 685 506 915 339 
Q 1197 141 1466 141 
Q 1818 141 2058 425 
Q 2298 710 2298 1120 
Q 2298 1856 1632 2048 
Q 1434 2112 979 2112 
L 979 2202 
Q 1338 2323 1517 2432 
Q 2035 2726 2035 3290 
Q 2035 3610 1852 3776 
Q 1670 3942 1344 3942 
Q 768 3942 390 3264 
z
" transform="scale(0.015625)"/>
       </defs>
       <use xlink:href="#STIXGeneral-Regular-30"/>
       <use xlink:href="#STIXGeneral-Regular-2e" transform="translate(49.999985 0)"/>
       <use xlink:href="#STIXGeneral-Regular-33" transform="translate(74.999969 0)"/>
      </g>
     </g>
    </g>
    <g id="xtick_3">
     <g id="line2d_3">
      <g>
       <use xlink:href="#m0279ada43f" x="185.796748" y="172.06483" style="stroke: #000000; stroke-width: 0.8"/>
      </g>
     </g>
     <g id="text_3">
      <!-- 0.4 -->
      <g transform="translate(179.859248 185.553033) scale(0.095 -0.095)">
       <defs>
        <path id="STIXGeneral-Regular-34" d="M 3027 1069 
L 2368 1069 
L 2368 0 
L 1869 0 
L 1869 1069 
L 77 1069 
L 77 1478 
L 2086 4326 
L 2368 4326 
L 2368 1478 
L 3027 1478 
L 3027 1069 
z
M 1869 1478 
L 1869 3674 
L 333 1478 
L 1869 1478 
z
" transform="scale(0.015625)"/>
       </defs>
       <use xlink:href="#STIXGeneral-Regular-30"/>
       <use xlink:href="#STIXGeneral-Regular-2e" transform="translate(49.999985 0)"/>
       <use xlink:href="#STIXGeneral-Regular-34" transform="translate(74.999969 0)"/>
      </g>
     </g>
    </g>
    <g id="xtick_4">
     <g id="line2d_4">
      <g>
       <use xlink:href="#m0279ada43f" x="247.965725" y="172.06483" style="stroke: #000000; stroke-width: 0.8"/>
      </g>
     </g>
     <g id="text_4">
      <!-- 0.5 -->
      <g transform="translate(242.028225 185.553033) scale(0.095 -0.095)">
       <defs>
        <path id="STIXGeneral-Regular-35" d="M 2803 4358 
L 2573 3814 
Q 2534 3731 2400 3731 
L 1158 3731 
L 902 3187 
Q 1606 3053 1920 2896 
Q 2234 2739 2502 2368 
Q 2726 2061 2726 1555 
Q 2726 1094 2576 780 
Q 2426 467 2099 224 
Q 1664 -90 1011 -90 
Q 646 -90 422 19 
Q 198 128 198 307 
Q 198 550 486 550 
Q 717 550 960 352 
Q 1210 147 1414 147 
Q 1747 147 2012 480 
Q 2278 813 2278 1229 
Q 2278 1843 1850 2189 
Q 1293 2637 486 2637 
Q 410 2637 410 2688 
L 416 2720 
L 1114 4237 
L 2438 4237 
Q 2547 4237 2608 4269 
Q 2669 4301 2746 4403 
L 2803 4358 
z
" transform="scale(0.015625)"/>
       </defs>
       <use xlink:href="#STIXGeneral-Regular-30"/>
       <use xlink:href="#STIXGeneral-Regular-2e" transform="translate(49.999985 0)"/>
       <use xlink:href="#STIXGeneral-Regular-35" transform="translate(74.999969 0)"/>
      </g>
     </g>
    </g>
    <g id="text_5">
     <!-- Mask ratio -->
     <g transform="translate(132.11019 198.786002) scale(0.105 -0.105)">
      <defs>
       <path id="STIXGeneral-Regular-4d" d="M 5530 0 
L 3738 0 
L 3738 122 
Q 4115 147 4214 265 
Q 4314 384 4314 787 
L 4314 3661 
L 2682 0 
L 2592 0 
L 979 3514 
L 979 966 
Q 979 448 1088 294 
Q 1197 141 1574 122 
L 1574 0 
L 77 0 
L 77 122 
Q 358 141 480 205 
Q 602 269 650 432 
Q 698 595 698 966 
L 698 3514 
Q 698 3878 589 3984 
Q 480 4090 90 4115 
L 90 4237 
L 1357 4237 
L 2835 1024 
L 4250 4237 
L 5523 4237 
L 5523 4115 
Q 5178 4109 5072 3993 
Q 4966 3878 4966 3520 
L 4966 717 
Q 4966 378 5072 262 
Q 5178 147 5530 122 
L 5530 0 
z
" transform="scale(0.015625)"/>
       <path id="STIXGeneral-Regular-61" d="M 2829 422 
L 2829 243 
Q 2586 -64 2253 -64 
Q 1888 -64 1843 403 
L 1837 403 
Q 1427 -64 909 -64 
Q 608 -64 422 112 
Q 237 288 237 602 
Q 237 1050 685 1350 
Q 992 1555 1837 1869 
L 1837 2214 
Q 1837 2502 1699 2646 
Q 1562 2790 1338 2790 
Q 1146 2790 1018 2697 
Q 890 2605 890 2477 
Q 890 2419 909 2348 
Q 928 2278 928 2208 
Q 928 2112 841 2029 
Q 755 1946 634 1946 
Q 525 1946 441 2029 
Q 358 2112 358 2240 
Q 358 2547 685 2752 
Q 986 2944 1421 2944 
Q 1939 2944 2176 2656 
Q 2291 2522 2323 2384 
Q 2355 2246 2355 1946 
L 2355 723 
Q 2355 301 2554 301 
Q 2682 301 2829 422 
z
M 1837 813 
L 1837 1715 
Q 1248 1510 1018 1293 
Q 800 1094 800 800 
Q 800 557 921 432 
Q 1043 307 1242 307 
Q 1453 307 1613 410 
Q 1747 506 1792 589 
Q 1837 672 1837 813 
z
" transform="scale(0.015625)"/>
       <path id="STIXGeneral-Regular-73" d="M 998 1926 
L 1664 1523 
Q 1984 1331 2105 1164 
Q 2227 998 2227 736 
Q 2227 416 1961 176 
Q 1696 -64 1331 -64 
Q 1030 -64 864 -6 
Q 691 51 570 51 
Q 461 51 416 -26 
L 333 -26 
L 333 979 
L 435 979 
Q 538 512 730 294 
Q 922 77 1248 77 
Q 1485 77 1632 211 
Q 1779 346 1779 550 
Q 1779 845 1440 1030 
L 1094 1222 
Q 326 1651 326 2150 
Q 326 2522 566 2730 
Q 806 2938 1210 2938 
Q 1491 2938 1638 2867 
Q 1754 2816 1818 2816 
Q 1862 2816 1920 2880 
L 1990 2880 
L 2022 2010 
L 1926 2010 
Q 1818 2445 1654 2621 
Q 1491 2797 1203 2797 
Q 986 2797 854 2688 
Q 723 2579 723 2362 
Q 723 2253 796 2128 
Q 870 2003 998 1926 
z
" transform="scale(0.015625)"/>
       <path id="STIXGeneral-Regular-6b" d="M 3232 0 
L 1837 0 
L 1837 96 
L 1958 96 
Q 2093 96 2093 192 
Q 2093 250 2022 339 
L 1062 1606 
L 1062 429 
Q 1062 262 1142 185 
Q 1222 109 1414 102 
L 1542 96 
L 1542 0 
L 45 0 
L 45 96 
Q 390 154 457 214 
Q 525 275 525 525 
L 525 3610 
Q 525 3840 467 3920 
Q 410 4000 250 4000 
Q 211 4000 45 3987 
L 45 4090 
L 237 4141 
Q 621 4243 1037 4371 
L 1062 4358 
L 1062 1670 
L 1939 2451 
Q 2086 2586 2086 2675 
Q 2086 2739 2019 2761 
Q 1952 2784 1766 2790 
L 1766 2880 
L 3072 2880 
L 3072 2784 
Q 2752 2784 2505 2646 
Q 2259 2509 1690 1978 
L 1504 1805 
L 2483 563 
Q 2829 122 3232 96 
L 3232 0 
z
" transform="scale(0.015625)"/>
       <path id="STIXGeneral-Regular-20" transform="scale(0.015625)"/>
       <path id="STIXGeneral-Regular-72" d="M 1024 2931 
L 1024 2342 
Q 1267 2688 1430 2816 
Q 1594 2944 1792 2944 
Q 1958 2944 2051 2854 
Q 2144 2765 2144 2605 
Q 2144 2470 2077 2393 
Q 2010 2317 1894 2317 
Q 1773 2317 1638 2445 
Q 1536 2541 1472 2541 
Q 1338 2541 1181 2355 
Q 1024 2170 1024 2016 
L 1024 576 
Q 1024 301 1133 205 
Q 1242 109 1568 96 
L 1568 0 
L 32 0 
L 32 96 
Q 339 154 412 224 
Q 486 294 486 538 
L 486 2138 
Q 486 2349 438 2435 
Q 390 2522 269 2522 
Q 166 2522 45 2496 
L 45 2598 
Q 448 2726 992 2944 
L 1024 2931 
z
" transform="scale(0.015625)"/>
       <path id="STIXGeneral-Regular-74" d="M 1702 493 
L 1786 422 
Q 1478 -64 1011 -64 
Q 448 -64 448 749 
L 448 2675 
L 109 2675 
Q 83 2694 83 2720 
Q 83 2771 192 2842 
Q 435 2982 813 3526 
Q 826 3546 874 3606 
Q 922 3667 941 3706 
Q 986 3706 986 3622 
L 986 2880 
L 1632 2880 
L 1632 2675 
L 986 2675 
L 986 845 
Q 986 538 1062 403 
Q 1139 269 1318 269 
Q 1510 269 1702 493 
z
" transform="scale(0.015625)"/>
       <path id="STIXGeneral-Regular-69" d="M 1152 4045 
Q 1152 3904 1056 3811 
Q 960 3718 819 3718 
Q 685 3718 592 3811 
Q 499 3904 499 4045 
Q 499 4179 595 4275 
Q 691 4371 826 4371 
Q 966 4371 1059 4275 
Q 1152 4179 1152 4045 
z
M 1619 0 
L 102 0 
L 102 96 
Q 435 115 521 211 
Q 608 307 608 666 
L 608 2118 
Q 608 2342 563 2432 
Q 518 2522 397 2522 
Q 243 2522 128 2490 
L 128 2592 
L 1120 2944 
L 1146 2918 
L 1146 672 
Q 1146 314 1226 218 
Q 1306 122 1619 96 
L 1619 0 
z
" transform="scale(0.015625)"/>
       <path id="STIXGeneral-Regular-6f" d="M 3008 1478 
Q 3008 806 2608 371 
Q 2208 -64 1568 -64 
Q 979 -64 582 368 
Q 186 800 186 1459 
Q 186 2125 582 2534 
Q 979 2944 1626 2944 
Q 2221 2944 2614 2537 
Q 3008 2131 3008 1478 
z
M 2432 1306 
Q 2432 2035 2112 2445 
Q 1856 2765 1504 2765 
Q 1171 2765 966 2493 
Q 762 2221 762 1747 
Q 762 928 1101 435 
Q 1318 115 1677 115 
Q 2029 115 2230 432 
Q 2432 749 2432 1306 
z
" transform="scale(0.015625)"/>
      </defs>
      <use xlink:href="#STIXGeneral-Regular-4d"/>
      <use xlink:href="#STIXGeneral-Regular-61" transform="translate(88.899994 0)"/>
      <use xlink:href="#STIXGeneral-Regular-73" transform="translate(133.299988 0)"/>
      <use xlink:href="#STIXGeneral-Regular-6b" transform="translate(172.199982 0)"/>
      <use xlink:href="#STIXGeneral-Regular-20" transform="translate(222.199966 0)"/>
      <use xlink:href="#STIXGeneral-Regular-72" transform="translate(247.199951 0)"/>
      <use xlink:href="#STIXGeneral-Regular-61" transform="translate(280.499939 0)"/>
      <use xlink:href="#STIXGeneral-Regular-74" transform="translate(324.899933 0)"/>
      <use xlink:href="#STIXGeneral-Regular-69" transform="translate(352.699921 0)"/>
      <use xlink:href="#STIXGeneral-Regular-6f" transform="translate(380.499908 0)"/>
     </g>
    </g>
   </g>
   <g id="matplotlib.axis_2">
    <g id="ytick_1">
     <g id="line2d_5">
      <path d="M 49.025 139.227097 
L 260.39952 139.227097 
" clip-path="url(#pfd6d39a0c4)" style="fill: none; stroke: #d7dce2; stroke-opacity: 0.75; stroke-width: 0.8; stroke-linecap: square"/>
     </g>
     <g id="line2d_6">
      <defs>
       <path id="m7a328f0748" d="M 0 0 
L -3.5 0 
" style="stroke: #000000; stroke-width: 0.8"/>
      </defs>
      <g>
       <use xlink:href="#m7a328f0748" x="49.025" y="139.227097" style="stroke: #000000; stroke-width: 0.8"/>
      </g>
     </g>
     <g id="text_6">
      <!-- 0.250 -->
      <g transform="translate(20.65 142.471199) scale(0.095 -0.095)">
       <use xlink:href="#STIXGeneral-Regular-30"/>
       <use xlink:href="#STIXGeneral-Regular-2e" transform="translate(49.999985 0)"/>
       <use xlink:href="#STIXGeneral-Regular-32" transform="translate(74.999969 0)"/>
       <use xlink:href="#STIXGeneral-Regular-35" transform="translate(124.999954 0)"/>
       <use xlink:href="#STIXGeneral-Regular-30" transform="translate(174.999939 0)"/>
      </g>
     </g>
    </g>
    <g id="ytick_2">
     <g id="line2d_7">
      <path d="M 49.025 105.376207 
L 260.39952 105.376207 
" clip-path="url(#pfd6d39a0c4)" style="fill: none; stroke: #d7dce2; stroke-opacity: 0.75; stroke-width: 0.8; stroke-linecap: square"/>
     </g>
     <g id="line2d_8">
      <g>
       <use xlink:href="#m7a328f0748" x="49.025" y="105.376207" style="stroke: #000000; stroke-width: 0.8"/>
      </g>
     </g>
     <g id="text_7">
      <!-- 0.300 -->
      <g transform="translate(20.65 108.620308) scale(0.095 -0.095)">
       <use xlink:href="#STIXGeneral-Regular-30"/>
       <use xlink:href="#STIXGeneral-Regular-2e" transform="translate(49.999985 0)"/>
       <use xlink:href="#STIXGeneral-Regular-33" transform="translate(74.999969 0)"/>
       <use xlink:href="#STIXGeneral-Regular-30" transform="translate(124.999954 0)"/>
       <use xlink:href="#STIXGeneral-Regular-30" transform="translate(174.999939 0)"/>
      </g>
     </g>
    </g>
    <g id="ytick_3">
     <g id="line2d_9">
      <path d="M 49.025 71.525317 
L 260.39952 71.525317 
" clip-path="url(#pfd6d39a0c4)" style="fill: none; stroke: #d7dce2; stroke-opacity: 0.75; stroke-width: 0.8; stroke-linecap: square"/>
     </g>
     <g id="line2d_10">
      <g>
       <use xlink:href="#m7a328f0748" x="49.025" y="71.525317" style="stroke: #000000; stroke-width: 0.8"/>
      </g>
     </g>
     <g id="text_8">
      <!-- 0.350 -->
      <g transform="translate(20.65 74.769418) scale(0.095 -0.095)">
       <use xlink:href="#STIXGeneral-Regular-30"/>
       <use xlink:href="#STIXGeneral-Regular-2e" transform="translate(49.999985 0)"/>
       <use xlink:href="#STIXGeneral-Regular-33" transform="translate(74.999969 0)"/>
       <use xlink:href="#STIXGeneral-Regular-35" transform="translate(124.999954 0)"/>
       <use xlink:href="#STIXGeneral-Regular-30" transform="translate(174.999939 0)"/>
      </g>
     </g>
    </g>
    <g id="ytick_4">
     <g id="line2d_11">
      <path d="M 49.025 37.674426 
L 260.39952 37.674426 
" clip-path="url(#pfd6d39a0c4)" style="fill: none; stroke: #d7dce2; stroke-opacity: 0.75; stroke-width: 0.8; stroke-linecap: square"/>
     </g>
     <g id="line2d_12">
      <g>
       <use xlink:href="#m7a328f0748" x="49.025" y="37.674426" style="stroke: #000000; stroke-width: 0.8"/>
      </g>
     </g>
     <g id="text_9">
      <!-- 0.400 -->
      <g transform="translate(20.65 40.918528) scale(0.095 -0.095)">
       <use xlink:href="#STIXGeneral-Regular-30"/>
       <use xlink:href="#STIXGeneral-Regular-2e" transform="translate(49.999985 0)"/>
       <use xlink:href="#STIXGeneral-Regular-34" transform="translate(74.999969 0)"/>
       <use xlink:href="#STIXGeneral-Regular-30" transform="translate(124.999954 0)"/>
       <use xlink:href="#STIXGeneral-Regular-30" transform="translate(174.999939 0)"/>
      </g>
     </g>
    </g>
    <g id="text_10">
     <!-- MSE -->
     <g transform="translate(14.371172 110.222277) rotate(-90) scale(0.105 -0.105)">
      <defs>
       <path id="STIXGeneral-Regular-53" d="M 3002 2963 
L 2842 2963 
Q 2733 3360 2579 3565 
Q 2189 4064 1651 4064 
Q 1357 4064 1181 3894 
Q 1005 3725 1005 3456 
Q 1005 3328 1069 3206 
Q 1133 3085 1206 2998 
Q 1280 2912 1465 2784 
Q 1651 2656 1766 2589 
Q 1882 2522 2150 2362 
Q 2669 2061 2905 1763 
Q 3142 1466 3142 1107 
Q 3142 576 2771 243 
Q 2400 -90 1837 -90 
Q 1421 -90 1082 58 
Q 915 128 781 128 
Q 704 128 653 70 
Q 602 13 602 -83 
L 461 -83 
L 275 1274 
L 416 1274 
Q 845 141 1734 141 
Q 2074 141 2285 342 
Q 2496 544 2496 858 
Q 2496 1158 2310 1363 
Q 2003 1696 1235 2106 
Q 454 2522 454 3206 
Q 454 3718 768 4022 
Q 1082 4326 1568 4326 
Q 1907 4326 2240 4186 
Q 2413 4109 2522 4109 
Q 2688 4109 2726 4326 
L 2861 4326 
L 3002 2963 
z
" transform="scale(0.015625)"/>
       <path id="STIXGeneral-Regular-45" d="M 3821 1082 
L 3526 0 
L 77 0 
L 77 122 
Q 442 147 538 252 
Q 634 358 634 730 
L 634 3520 
Q 634 3878 534 3987 
Q 435 4096 77 4115 
L 77 4237 
L 3469 4237 
L 3494 3322 
L 3334 3322 
Q 3264 3750 3085 3872 
Q 2906 3994 2349 3994 
L 1510 3994 
Q 1370 3994 1328 3952 
Q 1286 3910 1286 3763 
L 1286 2355 
L 2253 2355 
Q 2656 2355 2787 2470 
Q 2918 2586 2976 2970 
L 3123 2970 
L 3123 1472 
L 2976 1472 
Q 2918 1875 2790 1984 
Q 2662 2093 2253 2093 
L 1286 2093 
L 1286 538 
Q 1286 346 1420 291 
Q 1555 237 1933 237 
L 2163 237 
Q 2848 237 3136 403 
Q 3424 570 3642 1082 
L 3821 1082 
z
" transform="scale(0.015625)"/>
      </defs>
      <use xlink:href="#STIXGeneral-Regular-4d"/>
      <use xlink:href="#STIXGeneral-Regular-53" transform="translate(88.899994 0)"/>
      <use xlink:href="#STIXGeneral-Regular-45" transform="translate(144.499985 0)"/>
     </g>
    </g>
   </g>
   <g id="FillBetweenPolyCollection_1">
    <defs>
     <path id="m26a11b7d22" d="M 61.458795 -226.657647 
L 61.458795 -223.076223 
L 123.627772 -254.53047 
L 185.796748 -294.345887 
L 247.965725 -342.678188 
L 247.965725 -355.142086 
L 247.965725 -355.142086 
L 185.796748 -304.182956 
L 123.627772 -261.36835 
L 61.458795 -226.657647 
z
" style="stroke: #1f6f78; stroke-opacity: 0.08"/>
    </defs>
    <g clip-path="url(#pfd6d39a0c4)">
     <use xlink:href="#m26a11b7d22" x="0" y="388.53776" style="fill: #1f6f78; fill-opacity: 0.08; stroke: #1f6f78; stroke-opacity: 0.08"/>
    </g>
   </g>
   <g id="FillBetweenPolyCollection_2"/>
   <g id="line2d_13">
    <path d="M 61.458795 161.880113 
L 123.627772 127.16941 
L 185.796748 84.354804 
L 247.965725 33.395674 
" clip-path="url(#pfd6d39a0c4)" style="fill: none; stroke-dasharray: 8,4; stroke-dashoffset: 0; stroke: #8c97a5; stroke-width: 2"/>
    <defs>
     <path id="m544783629b" d="M 0 2.7 
C 0.716048 2.7 1.402866 2.415511 1.909188 1.909188 
C 2.415511 1.402866 2.7 0.716048 2.7 0 
C 2.7 -0.716048 2.415511 -1.402866 1.909188 -1.909188 
C 1.402866 -2.415511 0.716048 -2.7 0 -2.7 
C -0.716048 -2.7 -1.402866 -2.415511 -1.909188 -1.909188 
C -2.415511 -1.402866 -2.7 -0.716048 -2.7 0 
C -2.7 0.716048 -2.415511 1.402866 -1.909188 1.909188 
C -1.402866 2.415511 -0.716048 2.7 0 2.7 
z
" style="stroke: #8c97a5; stroke-width: 1.2"/>
    </defs>
    <g clip-path="url(#pfd6d39a0c4)">
     <use xlink:href="#m544783629b" x="61.458795" y="161.880113" style="fill: #ffffff; stroke: #8c97a5; stroke-width: 1.2"/>
     <use xlink:href="#m544783629b" x="123.627772" y="127.16941" style="fill: #ffffff; stroke: #8c97a5; stroke-width: 1.2"/>
     <use xlink:href="#m544783629b" x="185.796748" y="84.354804" style="fill: #ffffff; stroke: #8c97a5; stroke-width: 1.2"/>
     <use xlink:href="#m544783629b" x="247.965725" y="33.395674" style="fill: #ffffff; stroke: #8c97a5; stroke-width: 1.2"/>
    </g>
   </g>
   <g id="line2d_14">
    <path d="M 61.458795 165.461537 
L 123.627772 134.00729 
L 185.796748 94.191873 
L 247.965725 45.859572 
" clip-path="url(#pfd6d39a0c4)" style="fill: none; stroke: #1f6f78; stroke-width: 2.35; stroke-linecap: square"/>
    <defs>
     <path id="m759be70357" d="M -0 3.676955 
L 3.676955 0 
L 0 -3.676955 
L -3.676955 -0 
z
" style="stroke: #1f6f78; stroke-width: 1.1; stroke-linejoin: miter"/>
    </defs>
    <g clip-path="url(#pfd6d39a0c4)">
     <use xlink:href="#m759be70357" x="61.458795" y="165.461537" style="fill: #ffffff; stroke: #1f6f78; stroke-width: 1.1; stroke-linejoin: miter"/>
     <use xlink:href="#m759be70357" x="123.627772" y="134.00729" style="fill: #ffffff; stroke: #1f6f78; stroke-width: 1.1; stroke-linejoin: miter"/>
     <use xlink:href="#m759be70357" x="185.796748" y="94.191873" style="fill: #ffffff; stroke: #1f6f78; stroke-width: 1.1; stroke-linejoin: miter"/>
     <use xlink:href="#m759be70357" x="247.965725" y="45.859572" style="fill: #ffffff; stroke: #1f6f78; stroke-width: 1.1; stroke-linejoin: miter"/>
    </g>
   </g>
   <g id="patch_3">
    <path d="M 49.025 172.06483 
L 49.025 26.792381 
" style="fill: none; stroke: #404040; stroke-width: 0.9; stroke-linejoin: miter; stroke-linecap: square"/>
   </g>
   <g id="patch_4">
    <path d="M 49.025 172.06483 
L 260.39952 172.06483 
" style="fill: none; stroke: #404040; stroke-width: 0.9; stroke-linejoin: miter; stroke-linecap: square"/>
   </g>
   <g id="text_11">
    <!-- Random masking -->
    <g transform="translate(114.300541 20.792381) scale(0.115 -0.115)">
     <defs>
      <path id="STIXGeneral-Regular-52" d="M 4224 0 
L 3187 0 
L 1664 1971 
L 1306 1958 
L 1306 717 
Q 1306 352 1405 249 
Q 1504 147 1875 122 
L 1875 0 
L 109 0 
L 109 122 
Q 474 154 563 262 
Q 653 371 653 794 
L 653 3526 
Q 653 3885 563 3987 
Q 474 4090 109 4115 
L 109 4237 
L 1850 4237 
Q 2726 4237 3187 3859 
Q 3501 3603 3501 3091 
Q 3501 2221 2342 2042 
L 3622 422 
Q 3757 256 3878 198 
Q 4000 141 4224 122 
L 4224 0 
z
M 1306 3731 
L 1306 2195 
Q 1766 2202 1990 2246 
Q 2214 2291 2438 2413 
Q 2803 2618 2803 3142 
Q 2803 4000 1632 4000 
Q 1459 4000 1382 3945 
Q 1306 3891 1306 3731 
z
" transform="scale(0.015625)"/>
      <path id="STIXGeneral-Regular-6e" d="M 3104 0 
L 1773 0 
L 1779 96 
Q 2016 115 2096 233 
Q 2176 352 2176 672 
L 2176 1946 
Q 2176 2592 1709 2592 
Q 1549 2592 1408 2515 
Q 1267 2438 1050 2227 
L 1050 461 
Q 1050 269 1136 192 
Q 1222 115 1466 96 
L 1466 0 
L 115 0 
L 115 96 
Q 358 115 435 214 
Q 512 314 512 602 
L 512 2157 
Q 512 2394 467 2483 
Q 422 2573 288 2573 
Q 160 2573 102 2547 
L 102 2656 
Q 550 2784 979 2944 
L 1030 2925 
L 1030 2426 
L 1037 2426 
Q 1491 2944 1958 2944 
Q 2323 2944 2518 2688 
Q 2714 2432 2714 1958 
L 2714 544 
Q 2714 288 2790 205 
Q 2867 122 3104 96 
L 3104 0 
z
" transform="scale(0.015625)"/>
      <path id="STIXGeneral-Regular-64" d="M 3142 269 
L 2202 -64 
L 2176 -45 
L 2176 365 
Q 1869 -64 1357 -64 
Q 826 -64 499 317 
Q 173 698 173 1312 
Q 173 1990 563 2467 
Q 954 2944 1504 2944 
Q 1850 2944 2176 2669 
L 2176 3667 
Q 2176 3866 2118 3930 
Q 2061 3994 1882 3994 
Q 1792 3994 1741 3987 
L 1741 4090 
Q 2323 4243 2682 4371 
L 2714 4358 
L 2714 730 
Q 2714 506 2768 435 
Q 2822 365 2995 365 
Q 3034 365 3142 371 
L 3142 269 
z
M 2176 653 
L 2176 2125 
Q 2176 2381 1981 2573 
Q 1786 2765 1523 2765 
Q 1158 2765 940 2438 
Q 723 2112 723 1568 
Q 723 979 963 624 
Q 1203 269 1606 269 
Q 1907 269 2080 474 
Q 2176 582 2176 653 
z
" transform="scale(0.015625)"/>
      <path id="STIXGeneral-Regular-6d" d="M 4960 0 
L 3565 0 
L 3565 96 
Q 3834 122 3907 208 
Q 3981 294 3981 576 
L 3981 1894 
Q 3981 2278 3869 2444 
Q 3757 2611 3488 2611 
Q 3264 2611 3107 2521 
Q 2950 2432 2803 2221 
L 2803 608 
Q 2803 301 2896 201 
Q 2989 102 3264 96 
L 3264 0 
L 1830 0 
L 1830 96 
Q 2112 115 2189 188 
Q 2266 262 2266 550 
L 2266 1901 
Q 2266 2611 1850 2611 
Q 1670 2611 1468 2531 
Q 1267 2451 1171 2336 
Q 1088 2240 1088 2227 
L 1088 448 
Q 1088 243 1177 176 
Q 1267 109 1523 96 
L 1523 0 
L 102 0 
L 102 96 
Q 371 102 460 195 
Q 550 288 550 563 
L 550 2150 
Q 550 2387 499 2480 
Q 448 2573 326 2573 
Q 230 2573 122 2547 
L 122 2656 
Q 557 2778 1011 2944 
L 1062 2925 
L 1062 2451 
L 1075 2451 
Q 1363 2752 1584 2848 
Q 1805 2944 2054 2944 
Q 2560 2944 2733 2406 
Q 3232 2944 3776 2944 
Q 4518 2944 4518 1792 
L 4518 493 
Q 4518 282 4582 202 
Q 4646 122 4794 109 
L 4960 96 
L 4960 0 
z
" transform="scale(0.015625)"/>
      <path id="STIXGeneral-Regular-67" d="M 3008 2483 
L 2477 2483 
Q 2598 2208 2598 1946 
Q 2598 1453 2265 1203 
Q 1933 954 1600 954 
Q 1530 954 1357 973 
L 1235 986 
Q 1107 947 979 812 
Q 851 678 851 582 
Q 851 435 1350 410 
L 2176 371 
Q 2528 358 2739 172 
Q 2950 -13 2950 -314 
Q 2950 -685 2566 -986 
Q 2035 -1395 1286 -1395 
Q 826 -1395 502 -1212 
Q 179 -1030 179 -774 
Q 179 -595 320 -419 
Q 461 -243 806 6 
Q 602 102 534 172 
Q 467 243 467 346 
Q 467 531 762 787 
Q 909 915 1037 1043 
Q 717 1203 579 1401 
Q 442 1600 442 1901 
Q 442 2336 752 2640 
Q 1062 2944 1510 2944 
Q 1766 2944 2022 2848 
L 2163 2797 
Q 2349 2733 2515 2733 
L 3008 2733 
L 3008 2483 
z
M 973 2163 
L 973 2144 
Q 973 1683 1155 1398 
Q 1338 1114 1632 1114 
Q 1850 1114 1978 1270 
Q 2106 1427 2106 1690 
Q 2106 2112 1914 2464 
Q 1754 2765 1446 2765 
Q 1222 2765 1097 2605 
Q 973 2445 973 2163 
z
M 2771 -410 
Q 2771 -230 2595 -163 
Q 2419 -96 1978 -96 
Q 1344 -96 941 -13 
Q 749 -243 688 -348 
Q 627 -454 627 -563 
Q 627 -774 880 -902 
Q 1133 -1030 1555 -1030 
Q 2099 -1030 2435 -860 
Q 2771 -691 2771 -410 
z
" transform="scale(0.015625)"/>
     </defs>
     <use xlink:href="#STIXGeneral-Regular-52"/>
     <use xlink:href="#STIXGeneral-Regular-61" transform="translate(66.699997 0)"/>
     <use xlink:href="#STIXGeneral-Regular-6e" transform="translate(111.099991 0)"/>
     <use xlink:href="#STIXGeneral-Regular-64" transform="translate(161.099976 0)"/>
     <use xlink:href="#STIXGeneral-Regular-6f" transform="translate(211.09996 0)"/>
     <use xlink:href="#STIXGeneral-Regular-6d" transform="translate(261.099945 0)"/>
     <use xlink:href="#STIXGeneral-Regular-20" transform="translate(338.899933 0)"/>
     <use xlink:href="#STIXGeneral-Regular-6d" transform="translate(363.899918 0)"/>
     <use xlink:href="#STIXGeneral-Regular-61" transform="translate(441.699905 0)"/>
     <use xlink:href="#STIXGeneral-Regular-73" transform="translate(486.099899 0)"/>
     <use xlink:href="#STIXGeneral-Regular-6b" transform="translate(524.999893 0)"/>
     <use xlink:href="#STIXGeneral-Regular-69" transform="translate(574.999878 0)"/>
     <use xlink:href="#STIXGeneral-Regular-6e" transform="translate(602.799866 0)"/>
     <use xlink:href="#STIXGeneral-Regular-67" transform="translate(652.79985 0)"/>
    </g>
   </g>
  </g>
  <g id="axes_2">
   <g id="patch_5">
    <path d="M 308.225 172.06483 
L 519.59952 172.06483 
L 519.59952 26.792381 
L 308.225 26.792381 
z
" style="fill: #ffffff"/>
   </g>
   <g id="matplotlib.axis_3">
    <g id="xtick_5">
     <g id="line2d_15">
      <g>
       <use xlink:href="#m0279ada43f" x="317.832933" y="172.06483" style="stroke: #000000; stroke-width: 0.8"/>
      </g>
     </g>
     <g id="text_12">
      <!-- 0.1 -->
      <g transform="translate(311.895433 185.553033) scale(0.095 -0.095)">
       <defs>
        <path id="STIXGeneral-Regular-31" d="M 2522 0 
L 755 0 
L 755 96 
Q 1107 115 1235 227 
Q 1363 339 1363 608 
L 1363 3482 
Q 1363 3795 1171 3795 
Q 1082 3795 883 3718 
L 710 3654 
L 710 3744 
L 1856 4326 
L 1914 4307 
L 1914 486 
Q 1914 275 2042 185 
Q 2170 96 2522 96 
L 2522 0 
z
" transform="scale(0.015625)"/>
       </defs>
       <use xlink:href="#STIXGeneral-Regular-30"/>
       <use xlink:href="#STIXGeneral-Regular-2e" transform="translate(49.999985 0)"/>
       <use xlink:href="#STIXGeneral-Regular-31" transform="translate(74.999969 0)"/>
      </g>
     </g>
    </g>
    <g id="xtick_6">
     <g id="line2d_16">
      <g>
       <use xlink:href="#m0279ada43f" x="365.872596" y="172.06483" style="stroke: #000000; stroke-width: 0.8"/>
      </g>
     </g>
     <g id="text_13">
      <!-- 0.2 -->
      <g transform="translate(359.935096 185.553033) scale(0.095 -0.095)">
       <use xlink:href="#STIXGeneral-Regular-30"/>
       <use xlink:href="#STIXGeneral-Regular-2e" transform="translate(49.999985 0)"/>
       <use xlink:href="#STIXGeneral-Regular-32" transform="translate(74.999969 0)"/>
      </g>
     </g>
    </g>
    <g id="xtick_7">
     <g id="line2d_17">
      <g>
       <use xlink:href="#m0279ada43f" x="413.91226" y="172.06483" style="stroke: #000000; stroke-width: 0.8"/>
      </g>
     </g>
     <g id="text_14">
      <!-- 0.3 -->
      <g transform="translate(407.97476 185.553033) scale(0.095 -0.095)">
       <use xlink:href="#STIXGeneral-Regular-30"/>
       <use xlink:href="#STIXGeneral-Regular-2e" transform="translate(49.999985 0)"/>
       <use xlink:href="#STIXGeneral-Regular-33" transform="translate(74.999969 0)"/>
      </g>
     </g>
    </g>
    <g id="xtick_8">
     <g id="line2d_18">
      <g>
       <use xlink:href="#m0279ada43f" x="461.951924" y="172.06483" style="stroke: #000000; stroke-width: 0.8"/>
      </g>
     </g>
     <g id="text_15">
      <!-- 0.4 -->
      <g transform="translate(456.014424 185.553033) scale(0.095 -0.095)">
       <use xlink:href="#STIXGeneral-Regular-30"/>
       <use xlink:href="#STIXGeneral-Regular-2e" transform="translate(49.999985 0)"/>
       <use xlink:href="#STIXGeneral-Regular-34" transform="translate(74.999969 0)"/>
      </g>
     </g>
    </g>
    <g id="xtick_9">
     <g id="line2d_19">
      <g>
       <use xlink:href="#m0279ada43f" x="509.991587" y="172.06483" style="stroke: #000000; stroke-width: 0.8"/>
      </g>
     </g>
     <g id="text_16">
      <!-- 0.5 -->
      <g transform="translate(504.054087 185.553033) scale(0.095 -0.095)">
       <use xlink:href="#STIXGeneral-Regular-30"/>
       <use xlink:href="#STIXGeneral-Regular-2e" transform="translate(49.999985 0)"/>
       <use xlink:href="#STIXGeneral-Regular-35" transform="translate(74.999969 0)"/>
      </g>
     </g>
    </g>
    <g id="text_17">
     <!-- Mask ratio -->
     <g transform="translate(391.31019 198.786002) scale(0.105 -0.105)">
      <use xlink:href="#STIXGeneral-Regular-4d"/>
      <use xlink:href="#STIXGeneral-Regular-61" transform="translate(88.899994 0)"/>
      <use xlink:href="#STIXGeneral-Regular-73" transform="translate(133.299988 0)"/>
      <use xlink:href="#STIXGeneral-Regular-6b" transform="translate(172.199982 0)"/>
      <use xlink:href="#STIXGeneral-Regular-20" transform="translate(222.199966 0)"/>
      <use xlink:href="#STIXGeneral-Regular-72" transform="translate(247.199951 0)"/>
      <use xlink:href="#STIXGeneral-Regular-61" transform="translate(280.499939 0)"/>
      <use xlink:href="#STIXGeneral-Regular-74" transform="translate(324.899933 0)"/>
      <use xlink:href="#STIXGeneral-Regular-69" transform="translate(352.699921 0)"/>
      <use xlink:href="#STIXGeneral-Regular-6f" transform="translate(380.499908 0)"/>
     </g>
    </g>
   </g>
   <g id="matplotlib.axis_4">
    <g id="ytick_5">
     <g id="line2d_20">
      <path d="M 308.225 168.684163 
L 519.59952 168.684163 
" clip-path="url(#p2351a2ee57)" style="fill: none; stroke: #d7dce2; stroke-opacity: 0.75; stroke-width: 0.8; stroke-linecap: square"/>
     </g>
     <g id="line2d_21">
      <g>
       <use xlink:href="#m7a328f0748" x="308.225" y="168.684163" style="stroke: #000000; stroke-width: 0.8"/>
      </g>
     </g>
     <g id="text_18">
      <!-- 0.175 -->
      <g transform="translate(279.85 171.928265) scale(0.095 -0.095)">
       <defs>
        <path id="STIXGeneral-Regular-37" d="M 2874 4134 
L 1517 -51 
L 1101 -51 
L 2368 3763 
L 992 3763 
Q 717 3763 582 3667 
Q 448 3571 243 3238 
L 128 3296 
L 512 4237 
L 2874 4237 
L 2874 4134 
z
" transform="scale(0.015625)"/>
       </defs>
       <use xlink:href="#STIXGeneral-Regular-30"/>
       <use xlink:href="#STIXGeneral-Regular-2e" transform="translate(49.999985 0)"/>
       <use xlink:href="#STIXGeneral-Regular-31" transform="translate(74.999969 0)"/>
       <use xlink:href="#STIXGeneral-Regular-37" transform="translate(124.999954 0)"/>
       <use xlink:href="#STIXGeneral-Regular-35" transform="translate(174.999939 0)"/>
      </g>
     </g>
    </g>
    <g id="ytick_6">
     <g id="line2d_22">
      <path d="M 308.225 146.611382 
L 519.59952 146.611382 
" clip-path="url(#p2351a2ee57)" style="fill: none; stroke: #d7dce2; stroke-opacity: 0.75; stroke-width: 0.8; stroke-linecap: square"/>
     </g>
     <g id="line2d_23">
      <g>
       <use xlink:href="#m7a328f0748" x="308.225" y="146.611382" style="stroke: #000000; stroke-width: 0.8"/>
      </g>
     </g>
     <g id="text_19">
      <!-- 0.200 -->
      <g transform="translate(279.85 149.855484) scale(0.095 -0.095)">
       <use xlink:href="#STIXGeneral-Regular-30"/>
       <use xlink:href="#STIXGeneral-Regular-2e" transform="translate(49.999985 0)"/>
       <use xlink:href="#STIXGeneral-Regular-32" transform="translate(74.999969 0)"/>
       <use xlink:href="#STIXGeneral-Regular-30" transform="translate(124.999954 0)"/>
       <use xlink:href="#STIXGeneral-Regular-30" transform="translate(174.999939 0)"/>
      </g>
     </g>
    </g>
    <g id="ytick_7">
     <g id="line2d_24">
      <path d="M 308.225 124.538601 
L 519.59952 124.538601 
" clip-path="url(#p2351a2ee57)" style="fill: none; stroke: #d7dce2; stroke-opacity: 0.75; stroke-width: 0.8; stroke-linecap: square"/>
     </g>
     <g id="line2d_25">
      <g>
       <use xlink:href="#m7a328f0748" x="308.225" y="124.538601" style="stroke: #000000; stroke-width: 0.8"/>
      </g>
     </g>
     <g id="text_20">
      <!-- 0.225 -->
      <g transform="translate(279.85 127.782703) scale(0.095 -0.095)">
       <use xlink:href="#STIXGeneral-Regular-30"/>
       <use xlink:href="#STIXGeneral-Regular-2e" transform="translate(49.999985 0)"/>
       <use xlink:href="#STIXGeneral-Regular-32" transform="translate(74.999969 0)"/>
       <use xlink:href="#STIXGeneral-Regular-32" transform="translate(124.999954 0)"/>
       <use xlink:href="#STIXGeneral-Regular-35" transform="translate(174.999939 0)"/>
      </g>
     </g>
    </g>
    <g id="ytick_8">
     <g id="line2d_26">
      <path d="M 308.225 102.46582 
L 519.59952 102.46582 
" clip-path="url(#p2351a2ee57)" style="fill: none; stroke: #d7dce2; stroke-opacity: 0.75; stroke-width: 0.8; stroke-linecap: square"/>
     </g>
     <g id="line2d_27">
      <g>
       <use xlink:href="#m7a328f0748" x="308.225" y="102.46582" style="stroke: #000000; stroke-width: 0.8"/>
      </g>
     </g>
     <g id="text_21">
      <!-- 0.250 -->
      <g transform="translate(279.85 105.709922) scale(0.095 -0.095)">
       <use xlink:href="#STIXGeneral-Regular-30"/>
       <use xlink:href="#STIXGeneral-Regular-2e" transform="translate(49.999985 0)"/>
       <use xlink:href="#STIXGeneral-Regular-32" transform="translate(74.999969 0)"/>
       <use xlink:href="#STIXGeneral-Regular-35" transform="translate(124.999954 0)"/>
       <use xlink:href="#STIXGeneral-Regular-30" transform="translate(174.999939 0)"/>
      </g>
     </g>
    </g>
    <g id="ytick_9">
     <g id="line2d_28">
      <path d="M 308.225 80.393039 
L 519.59952 80.393039 
" clip-path="url(#p2351a2ee57)" style="fill: none; stroke: #d7dce2; stroke-opacity: 0.75; stroke-width: 0.8; stroke-linecap: square"/>
     </g>
     <g id="line2d_29">
      <g>
       <use xlink:href="#m7a328f0748" x="308.225" y="80.393039" style="stroke: #000000; stroke-width: 0.8"/>
      </g>
     </g>
     <g id="text_22">
      <!-- 0.275 -->
      <g transform="translate(279.85 83.637141) scale(0.095 -0.095)">
       <use xlink:href="#STIXGeneral-Regular-30"/>
       <use xlink:href="#STIXGeneral-Regular-2e" transform="translate(49.999985 0)"/>
       <use xlink:href="#STIXGeneral-Regular-32" transform="translate(74.999969 0)"/>
       <use xlink:href="#STIXGeneral-Regular-37" transform="translate(124.999954 0)"/>
       <use xlink:href="#STIXGeneral-Regular-35" transform="translate(174.999939 0)"/>
      </g>
     </g>
    </g>
    <g id="ytick_10">
     <g id="line2d_30">
      <path d="M 308.225 58.320258 
L 519.59952 58.320258 
" clip-path="url(#p2351a2ee57)" style="fill: none; stroke: #d7dce2; stroke-opacity: 0.75; stroke-width: 0.8; stroke-linecap: square"/>
     </g>
     <g id="line2d_31">
      <g>
       <use xlink:href="#m7a328f0748" x="308.225" y="58.320258" style="stroke: #000000; stroke-width: 0.8"/>
      </g>
     </g>
     <g id="text_23">
      <!-- 0.300 -->
      <g transform="translate(279.85 61.56436) scale(0.095 -0.095)">
       <use xlink:href="#STIXGeneral-Regular-30"/>
       <use xlink:href="#STIXGeneral-Regular-2e" transform="translate(49.999985 0)"/>
       <use xlink:href="#STIXGeneral-Regular-33" transform="translate(74.999969 0)"/>
       <use xlink:href="#STIXGeneral-Regular-30" transform="translate(124.999954 0)"/>
       <use xlink:href="#STIXGeneral-Regular-30" transform="translate(174.999939 0)"/>
      </g>
     </g>
    </g>
    <g id="ytick_11">
     <g id="line2d_32">
      <path d="M 308.225 36.247477 
L 519.59952 36.247477 
" clip-path="url(#p2351a2ee57)" style="fill: none; stroke: #d7dce2; stroke-opacity: 0.75; stroke-width: 0.8; stroke-linecap: square"/>
     </g>
     <g id="line2d_33">
      <g>
       <use xlink:href="#m7a328f0748" x="308.225" y="36.247477" style="stroke: #000000; stroke-width: 0.8"/>
      </g>
     </g>
     <g id="text_24">
      <!-- 0.325 -->
      <g transform="translate(279.85 39.491579) scale(0.095 -0.095)">
       <use xlink:href="#STIXGeneral-Regular-30"/>
       <use xlink:href="#STIXGeneral-Regular-2e" transform="translate(49.999985 0)"/>
       <use xlink:href="#STIXGeneral-Regular-33" transform="translate(74.999969 0)"/>
       <use xlink:href="#STIXGeneral-Regular-32" transform="translate(124.999954 0)"/>
       <use xlink:href="#STIXGeneral-Regular-35" transform="translate(174.999939 0)"/>
      </g>
     </g>
    </g>
    <g id="text_25">
     <!-- MSE -->
     <g transform="translate(273.571172 110.222277) rotate(-90) scale(0.105 -0.105)">
      <use xlink:href="#STIXGeneral-Regular-4d"/>
      <use xlink:href="#STIXGeneral-Regular-53" transform="translate(88.899994 0)"/>
      <use xlink:href="#STIXGeneral-Regular-45" transform="translate(144.499985 0)"/>
     </g>
    </g>
   </g>
   <g id="FillBetweenPolyCollection_3">
    <defs>
     <path id="m3a92ed5420" d="M 365.872596 -253.183496 
L 365.872596 -251.400015 
L 413.91226 -282.911118 
L 461.951924 -315.331618 
L 509.991587 -347.213543 
L 509.991587 -355.142086 
L 509.991587 -355.142086 
L 461.951924 -322.059402 
L 413.91226 -287.122604 
L 365.872596 -253.183496 
z
" style="stroke: #1f6f78; stroke-opacity: 0.08"/>
    </defs>
    <g clip-path="url(#p2351a2ee57)">
     <use xlink:href="#m3a92ed5420" x="0" y="388.53776" style="fill: #1f6f78; fill-opacity: 0.08; stroke: #1f6f78; stroke-opacity: 0.08"/>
    </g>
   </g>
   <g id="FillBetweenPolyCollection_4">
    <defs>
     <path id="mbef89337a7" d="M 317.832933 -223.076223 
L 317.832933 -224.550685 
L 317.832933 -223.076223 
L 317.832933 -223.076223 
z
" style="stroke: #d97757; stroke-opacity: 0.06"/>
    </defs>
    <g clip-path="url(#p2351a2ee57)">
     <use xlink:href="#mbef89337a7" x="0" y="388.53776" style="fill: #d97757; fill-opacity: 0.06; stroke: #d97757; stroke-opacity: 0.06"/>
    </g>
   </g>
   <g id="line2d_34">
    <path d="M 317.832933 165.461537 
L 365.872596 135.354264 
L 413.91226 101.415156 
L 461.951924 66.478358 
L 509.991587 33.395674 
" clip-path="url(#p2351a2ee57)" style="fill: none; stroke-dasharray: 8,4; stroke-dashoffset: 0; stroke: #8c97a5; stroke-width: 2"/>
    <g clip-path="url(#p2351a2ee57)">
     <use xlink:href="#m544783629b" x="317.832933" y="165.461537" style="fill: #ffffff; stroke: #8c97a5; stroke-width: 1.2"/>
     <use xlink:href="#m544783629b" x="365.872596" y="135.354264" style="fill: #ffffff; stroke: #8c97a5; stroke-width: 1.2"/>
     <use xlink:href="#m544783629b" x="413.91226" y="101.415156" style="fill: #ffffff; stroke: #8c97a5; stroke-width: 1.2"/>
     <use xlink:href="#m544783629b" x="461.951924" y="66.478358" style="fill: #ffffff; stroke: #8c97a5; stroke-width: 1.2"/>
     <use xlink:href="#m544783629b" x="509.991587" y="33.395674" style="fill: #ffffff; stroke: #8c97a5; stroke-width: 1.2"/>
    </g>
   </g>
   <g id="line2d_35">
    <path d="M 317.832933 163.987075 
L 365.872596 137.137745 
L 413.91226 105.626642 
L 461.951924 73.206142 
L 509.991587 41.324217 
" clip-path="url(#p2351a2ee57)" style="fill: none; stroke: #1f6f78; stroke-width: 2.35; stroke-linecap: square"/>
    <g clip-path="url(#p2351a2ee57)">
     <use xlink:href="#m759be70357" x="317.832933" y="163.987075" style="fill: #ffffff; stroke: #1f6f78; stroke-width: 1.1; stroke-linejoin: miter"/>
     <use xlink:href="#m759be70357" x="365.872596" y="137.137745" style="fill: #ffffff; stroke: #1f6f78; stroke-width: 1.1; stroke-linejoin: miter"/>
     <use xlink:href="#m759be70357" x="413.91226" y="105.626642" style="fill: #ffffff; stroke: #1f6f78; stroke-width: 1.1; stroke-linejoin: miter"/>
     <use xlink:href="#m759be70357" x="461.951924" y="73.206142" style="fill: #ffffff; stroke: #1f6f78; stroke-width: 1.1; stroke-linejoin: miter"/>
     <use xlink:href="#m759be70357" x="509.991587" y="41.324217" style="fill: #ffffff; stroke: #1f6f78; stroke-width: 1.1; stroke-linejoin: miter"/>
    </g>
   </g>
   <g id="patch_6">
    <path d="M 308.225 172.06483 
L 308.225 26.792381 
" style="fill: none; stroke: #404040; stroke-width: 0.9; stroke-linejoin: miter; stroke-linecap: square"/>
   </g>
   <g id="patch_7">
    <path d="M 308.225 172.06483 
L 519.59952 172.06483 
" style="fill: none; stroke: #404040; stroke-width: 0.9; stroke-linejoin: miter; stroke-linecap: square"/>
   </g>
   <g id="text_26">
    <!-- Block masking -->
    <g transform="translate(379.250541 20.792381) scale(0.115 -0.115)">
     <defs>
      <path id="STIXGeneral-Regular-42" d="M 2701 2234 
L 2701 2227 
Q 3181 2150 3482 1875 
Q 3795 1594 3795 1139 
Q 3795 608 3379 304 
Q 2963 0 2266 0 
L 109 0 
L 109 122 
Q 486 134 604 246 
Q 723 358 723 723 
L 723 3520 
Q 723 3891 614 3990 
Q 506 4090 109 4115 
L 109 4237 
L 1901 4237 
Q 2726 4237 3152 3958 
Q 3578 3680 3578 3168 
Q 3578 2733 3315 2502 
Q 3130 2342 2701 2234 
z
M 1376 2342 
L 1965 2342 
Q 2925 2342 2925 3136 
Q 2925 3546 2640 3773 
Q 2355 4000 1792 4000 
L 1530 4000 
Q 1376 4000 1376 3795 
L 1376 2342 
z
M 1376 2086 
L 1376 525 
Q 1376 365 1462 301 
Q 1549 237 1773 237 
Q 2208 237 2413 285 
Q 2618 333 2816 512 
Q 3059 723 3059 1146 
Q 3059 1632 2758 1830 
Q 2688 1882 2617 1917 
Q 2547 1952 2492 1974 
Q 2438 1997 2348 2016 
Q 2259 2035 2211 2044 
Q 2163 2054 2041 2060 
Q 1920 2067 1862 2070 
Q 1805 2074 1635 2080 
Q 1466 2086 1376 2086 
z
" transform="scale(0.015625)"/>
      <path id="STIXGeneral-Regular-6c" d="M 1645 0 
L 134 0 
L 134 96 
Q 435 122 531 221 
Q 627 320 627 589 
L 627 3590 
Q 627 3821 569 3910 
Q 512 4000 358 4000 
Q 224 4000 122 3987 
L 122 4090 
Q 730 4237 1133 4371 
L 1165 4346 
L 1165 557 
Q 1165 288 1254 201 
Q 1344 115 1645 96 
L 1645 0 
z
" transform="scale(0.015625)"/>
      <path id="STIXGeneral-Regular-63" d="M 2547 998 
L 2637 941 
Q 2362 403 2112 205 
Q 1786 -64 1376 -64 
Q 845 -64 502 336 
Q 160 736 160 1357 
Q 160 2170 698 2618 
Q 1094 2944 1562 2944 
Q 1965 2944 2256 2749 
Q 2547 2554 2547 2285 
Q 2547 2176 2457 2096 
Q 2368 2016 2246 2016 
Q 2022 2016 1939 2310 
L 1901 2451 
Q 1850 2630 1773 2694 
Q 1696 2758 1523 2758 
Q 1133 2758 893 2451 
Q 653 2144 653 1645 
Q 653 1094 928 745 
Q 1203 397 1645 397 
Q 1920 397 2118 528 
Q 2317 659 2547 998 
z
" transform="scale(0.015625)"/>
     </defs>
     <use xlink:href="#STIXGeneral-Regular-42"/>
     <use xlink:href="#STIXGeneral-Regular-6c" transform="translate(66.699997 0)"/>
     <use xlink:href="#STIXGeneral-Regular-6f" transform="translate(94.499985 0)"/>
     <use xlink:href="#STIXGeneral-Regular-63" transform="translate(144.499969 0)"/>
     <use xlink:href="#STIXGeneral-Regular-6b" transform="translate(188.899963 0)"/>
     <use xlink:href="#STIXGeneral-Regular-20" transform="translate(238.899948 0)"/>
     <use xlink:href="#STIXGeneral-Regular-6d" transform="translate(263.899933 0)"/>
     <use xlink:href="#STIXGeneral-Regular-61" transform="translate(341.699921 0)"/>
     <use xlink:href="#STIXGeneral-Regular-73" transform="translate(386.099915 0)"/>
     <use xlink:href="#STIXGeneral-Regular-6b" transform="translate(424.999908 0)"/>
     <use xlink:href="#STIXGeneral-Regular-69" transform="translate(474.999893 0)"/>
     <use xlink:href="#STIXGeneral-Regular-6e" transform="translate(502.799881 0)"/>
     <use xlink:href="#STIXGeneral-Regular-67" transform="translate(552.799866 0)"/>
    </g>
   </g>
  </g>
  <g id="axes_3">
   <g id="patch_8">
    <path d="M 49.025 352.33776 
L 260.39952 352.33776 
L 260.39952 207.06531 
L 49.025 207.06531 
z
" style="fill: #ffffff"/>
   </g>
   <g id="matplotlib.axis_5">
    <g id="xtick_10">
     <g id="line2d_36">
      <g>
       <use xlink:href="#m0279ada43f" x="61.458795" y="352.33776" style="stroke: #000000; stroke-width: 0.8"/>
      </g>
     </g>
     <g id="text_27">
      <!-- 0.2 -->
      <g transform="translate(55.521295 365.825963) scale(0.095 -0.095)">
       <use xlink:href="#STIXGeneral-Regular-30"/>
       <use xlink:href="#STIXGeneral-Regular-2e" transform="translate(49.999985 0)"/>
       <use xlink:href="#STIXGeneral-Regular-32" transform="translate(74.999969 0)"/>
      </g>
     </g>
    </g>
    <g id="xtick_11">
     <g id="line2d_37">
      <g>
       <use xlink:href="#m0279ada43f" x="123.627772" y="352.33776" style="stroke: #000000; stroke-width: 0.8"/>
      </g>
     </g>
     <g id="text_28">
      <!-- 0.3 -->
      <g transform="translate(117.690272 365.825963) scale(0.095 -0.095)">
       <use xlink:href="#STIXGeneral-Regular-30"/>
       <use xlink:href="#STIXGeneral-Regular-2e" transform="translate(49.999985 0)"/>
       <use xlink:href="#STIXGeneral-Regular-33" transform="translate(74.999969 0)"/>
      </g>
     </g>
    </g>
    <g id="xtick_12">
     <g id="line2d_38">
      <g>
       <use xlink:href="#m0279ada43f" x="185.796748" y="352.33776" style="stroke: #000000; stroke-width: 0.8"/>
      </g>
     </g>
     <g id="text_29">
      <!-- 0.4 -->
      <g transform="translate(179.859248 365.825963) scale(0.095 -0.095)">
       <use xlink:href="#STIXGeneral-Regular-30"/>
       <use xlink:href="#STIXGeneral-Regular-2e" transform="translate(49.999985 0)"/>
       <use xlink:href="#STIXGeneral-Regular-34" transform="translate(74.999969 0)"/>
      </g>
     </g>
    </g>
    <g id="xtick_13">
     <g id="line2d_39">
      <g>
       <use xlink:href="#m0279ada43f" x="247.965725" y="352.33776" style="stroke: #000000; stroke-width: 0.8"/>
      </g>
     </g>
     <g id="text_30">
      <!-- 0.5 -->
      <g transform="translate(242.028225 365.825963) scale(0.095 -0.095)">
       <use xlink:href="#STIXGeneral-Regular-30"/>
       <use xlink:href="#STIXGeneral-Regular-2e" transform="translate(49.999985 0)"/>
       <use xlink:href="#STIXGeneral-Regular-35" transform="translate(74.999969 0)"/>
      </g>
     </g>
    </g>
    <g id="text_31">
     <!-- Mask ratio -->
     <g transform="translate(132.11019 379.058932) scale(0.105 -0.105)">
      <use xlink:href="#STIXGeneral-Regular-4d"/>
      <use xlink:href="#STIXGeneral-Regular-61" transform="translate(88.899994 0)"/>
      <use xlink:href="#STIXGeneral-Regular-73" transform="translate(133.299988 0)"/>
      <use xlink:href="#STIXGeneral-Regular-6b" transform="translate(172.199982 0)"/>
      <use xlink:href="#STIXGeneral-Regular-20" transform="translate(222.199966 0)"/>
      <use xlink:href="#STIXGeneral-Regular-72" transform="translate(247.199951 0)"/>
      <use xlink:href="#STIXGeneral-Regular-61" transform="translate(280.499939 0)"/>
      <use xlink:href="#STIXGeneral-Regular-74" transform="translate(324.899933 0)"/>
      <use xlink:href="#STIXGeneral-Regular-69" transform="translate(352.699921 0)"/>
      <use xlink:href="#STIXGeneral-Regular-6f" transform="translate(380.499908 0)"/>
     </g>
    </g>
   </g>
   <g id="matplotlib.axis_6">
    <g id="ytick_12">
     <g id="line2d_40">
      <path d="M 49.025 324.86618 
L 260.39952 324.86618 
" clip-path="url(#p6abba9ae03)" style="fill: none; stroke: #d7dce2; stroke-opacity: 0.75; stroke-width: 0.8; stroke-linecap: square"/>
     </g>
     <g id="line2d_41">
      <g>
       <use xlink:href="#m7a328f0748" x="49.025" y="324.86618" style="stroke: #000000; stroke-width: 0.8"/>
      </g>
     </g>
     <g id="text_32">
      <!-- 0.350 -->
      <g transform="translate(20.65 328.110282) scale(0.095 -0.095)">
       <use xlink:href="#STIXGeneral-Regular-30"/>
       <use xlink:href="#STIXGeneral-Regular-2e" transform="translate(49.999985 0)"/>
       <use xlink:href="#STIXGeneral-Regular-33" transform="translate(74.999969 0)"/>
       <use xlink:href="#STIXGeneral-Regular-35" transform="translate(124.999954 0)"/>
       <use xlink:href="#STIXGeneral-Regular-30" transform="translate(174.999939 0)"/>
      </g>
     </g>
    </g>
    <g id="ytick_13">
     <g id="line2d_42">
      <path d="M 49.025 284.345235 
L 260.39952 284.345235 
" clip-path="url(#p6abba9ae03)" style="fill: none; stroke: #d7dce2; stroke-opacity: 0.75; stroke-width: 0.8; stroke-linecap: square"/>
     </g>
     <g id="line2d_43">
      <g>
       <use xlink:href="#m7a328f0748" x="49.025" y="284.345235" style="stroke: #000000; stroke-width: 0.8"/>
      </g>
     </g>
     <g id="text_33">
      <!-- 0.400 -->
      <g transform="translate(20.65 287.589337) scale(0.095 -0.095)">
       <use xlink:href="#STIXGeneral-Regular-30"/>
       <use xlink:href="#STIXGeneral-Regular-2e" transform="translate(49.999985 0)"/>
       <use xlink:href="#STIXGeneral-Regular-34" transform="translate(74.999969 0)"/>
       <use xlink:href="#STIXGeneral-Regular-30" transform="translate(124.999954 0)"/>
       <use xlink:href="#STIXGeneral-Regular-30" transform="translate(174.999939 0)"/>
      </g>
     </g>
    </g>
    <g id="ytick_14">
     <g id="line2d_44">
      <path d="M 49.025 243.824291 
L 260.39952 243.824291 
" clip-path="url(#p6abba9ae03)" style="fill: none; stroke: #d7dce2; stroke-opacity: 0.75; stroke-width: 0.8; stroke-linecap: square"/>
     </g>
     <g id="line2d_45">
      <g>
       <use xlink:href="#m7a328f0748" x="49.025" y="243.824291" style="stroke: #000000; stroke-width: 0.8"/>
      </g>
     </g>
     <g id="text_34">
      <!-- 0.450 -->
      <g transform="translate(20.65 247.068392) scale(0.095 -0.095)">
       <use xlink:href="#STIXGeneral-Regular-30"/>
       <use xlink:href="#STIXGeneral-Regular-2e" transform="translate(49.999985 0)"/>
       <use xlink:href="#STIXGeneral-Regular-34" transform="translate(74.999969 0)"/>
       <use xlink:href="#STIXGeneral-Regular-35" transform="translate(124.999954 0)"/>
       <use xlink:href="#STIXGeneral-Regular-30" transform="translate(174.999939 0)"/>
      </g>
     </g>
    </g>
    <g id="text_35">
     <!-- MAE -->
     <g transform="translate(14.371172 291.367199) rotate(-90) scale(0.105 -0.105)">
      <defs>
       <path id="STIXGeneral-Regular-41" d="M 4525 0 
L 2893 0 
L 2893 122 
Q 3149 122 3245 179 
Q 3334 224 3334 333 
Q 3334 499 3213 781 
L 2950 1382 
L 1274 1382 
L 979 653 
Q 922 506 922 384 
Q 922 237 1027 179 
Q 1133 122 1370 122 
L 1370 0 
L 96 0 
L 96 122 
Q 365 147 486 316 
Q 608 486 902 1190 
L 2221 4314 
L 2349 4314 
L 3923 710 
Q 4064 378 4176 262 
Q 4288 147 4525 122 
L 4525 0 
z
M 2861 1645 
L 2118 3405 
L 1382 1645 
L 2861 1645 
z
" transform="scale(0.015625)"/>
      </defs>
      <use xlink:href="#STIXGeneral-Regular-4d"/>
      <use xlink:href="#STIXGeneral-Regular-41" transform="translate(88.899994 0)"/>
      <use xlink:href="#STIXGeneral-Regular-45" transform="translate(161.099976 0)"/>
     </g>
    </g>
   </g>
   <g id="FillBetweenPolyCollection_5">
    <defs>
     <path id="mbe10acb925" d="M 61.458795 -49.43252 
L 61.458795 -42.803293 
L 123.627772 -79.199206 
L 185.796748 -119.614796 
L 247.965725 -163.069457 
L 247.965725 -174.869157 
L 247.965725 -174.869157 
L 185.796748 -130.604076 
L 123.627772 -88.559544 
L 61.458795 -49.43252 
z
" style="stroke: #1f6f78; stroke-opacity: 0.08"/>
    </defs>
    <g clip-path="url(#p6abba9ae03)">
     <use xlink:href="#mbe10acb925" x="0" y="388.53776" style="fill: #1f6f78; fill-opacity: 0.08; stroke: #1f6f78; stroke-opacity: 0.08"/>
    </g>
   </g>
   <g id="FillBetweenPolyCollection_6"/>
   <g id="line2d_46">
    <path d="M 61.458795 339.10524 
L 123.627772 299.978216 
L 185.796748 257.933684 
L 247.965725 213.668603 
" clip-path="url(#p6abba9ae03)" style="fill: none; stroke-dasharray: 8,4; stroke-dashoffset: 0; stroke: #8c97a5; stroke-width: 2"/>
    <g clip-path="url(#p6abba9ae03)">
     <use xlink:href="#m544783629b" x="61.458795" y="339.10524" style="fill: #ffffff; stroke: #8c97a5; stroke-width: 1.2"/>
     <use xlink:href="#m544783629b" x="123.627772" y="299.978216" style="fill: #ffffff; stroke: #8c97a5; stroke-width: 1.2"/>
     <use xlink:href="#m544783629b" x="185.796748" y="257.933684" style="fill: #ffffff; stroke: #8c97a5; stroke-width: 1.2"/>
     <use xlink:href="#m544783629b" x="247.965725" y="213.668603" style="fill: #ffffff; stroke: #8c97a5; stroke-width: 1.2"/>
    </g>
   </g>
   <g id="line2d_47">
    <path d="M 61.458795 345.734467 
L 123.627772 309.338554 
L 185.796748 268.922964 
L 247.965725 225.468303 
" clip-path="url(#p6abba9ae03)" style="fill: none; stroke: #1f6f78; stroke-width: 2.35; stroke-linecap: square"/>
    <g clip-path="url(#p6abba9ae03)">
     <use xlink:href="#m759be70357" x="61.458795" y="345.734467" style="fill: #ffffff; stroke: #1f6f78; stroke-width: 1.1; stroke-linejoin: miter"/>
     <use xlink:href="#m759be70357" x="123.627772" y="309.338554" style="fill: #ffffff; stroke: #1f6f78; stroke-width: 1.1; stroke-linejoin: miter"/>
     <use xlink:href="#m759be70357" x="185.796748" y="268.922964" style="fill: #ffffff; stroke: #1f6f78; stroke-width: 1.1; stroke-linejoin: miter"/>
     <use xlink:href="#m759be70357" x="247.965725" y="225.468303" style="fill: #ffffff; stroke: #1f6f78; stroke-width: 1.1; stroke-linejoin: miter"/>
    </g>
   </g>
   <g id="patch_9">
    <path d="M 49.025 352.33776 
L 49.025 207.06531 
" style="fill: none; stroke: #404040; stroke-width: 0.9; stroke-linejoin: miter; stroke-linecap: square"/>
   </g>
   <g id="patch_10">
    <path d="M 49.025 352.33776 
L 260.39952 352.33776 
" style="fill: none; stroke: #404040; stroke-width: 0.9; stroke-linejoin: miter; stroke-linecap: square"/>
   </g>
  </g>
  <g id="axes_4">
   <g id="patch_11">
    <path d="M 308.225 352.33776 
L 519.59952 352.33776 
L 519.59952 207.06531 
L 308.225 207.06531 
z
" style="fill: #ffffff"/>
   </g>
   <g id="matplotlib.axis_7">
    <g id="xtick_14">
     <g id="line2d_48">
      <g>
       <use xlink:href="#m0279ada43f" x="317.832933" y="352.33776" style="stroke: #000000; stroke-width: 0.8"/>
      </g>
     </g>
     <g id="text_36">
      <!-- 0.1 -->
      <g transform="translate(311.895433 365.825963) scale(0.095 -0.095)">
       <use xlink:href="#STIXGeneral-Regular-30"/>
       <use xlink:href="#STIXGeneral-Regular-2e" transform="translate(49.999985 0)"/>
       <use xlink:href="#STIXGeneral-Regular-31" transform="translate(74.999969 0)"/>
      </g>
     </g>
    </g>
    <g id="xtick_15">
     <g id="line2d_49">
      <g>
       <use xlink:href="#m0279ada43f" x="365.872596" y="352.33776" style="stroke: #000000; stroke-width: 0.8"/>
      </g>
     </g>
     <g id="text_37">
      <!-- 0.2 -->
      <g transform="translate(359.935096 365.825963) scale(0.095 -0.095)">
       <use xlink:href="#STIXGeneral-Regular-30"/>
       <use xlink:href="#STIXGeneral-Regular-2e" transform="translate(49.999985 0)"/>
       <use xlink:href="#STIXGeneral-Regular-32" transform="translate(74.999969 0)"/>
      </g>
     </g>
    </g>
    <g id="xtick_16">
     <g id="line2d_50">
      <g>
       <use xlink:href="#m0279ada43f" x="413.91226" y="352.33776" style="stroke: #000000; stroke-width: 0.8"/>
      </g>
     </g>
     <g id="text_38">
      <!-- 0.3 -->
      <g transform="translate(407.97476 365.825963) scale(0.095 -0.095)">
       <use xlink:href="#STIXGeneral-Regular-30"/>
       <use xlink:href="#STIXGeneral-Regular-2e" transform="translate(49.999985 0)"/>
       <use xlink:href="#STIXGeneral-Regular-33" transform="translate(74.999969 0)"/>
      </g>
     </g>
    </g>
    <g id="xtick_17">
     <g id="line2d_51">
      <g>
       <use xlink:href="#m0279ada43f" x="461.951924" y="352.33776" style="stroke: #000000; stroke-width: 0.8"/>
      </g>
     </g>
     <g id="text_39">
      <!-- 0.4 -->
      <g transform="translate(456.014424 365.825963) scale(0.095 -0.095)">
       <use xlink:href="#STIXGeneral-Regular-30"/>
       <use xlink:href="#STIXGeneral-Regular-2e" transform="translate(49.999985 0)"/>
       <use xlink:href="#STIXGeneral-Regular-34" transform="translate(74.999969 0)"/>
      </g>
     </g>
    </g>
    <g id="xtick_18">
     <g id="line2d_52">
      <g>
       <use xlink:href="#m0279ada43f" x="509.991587" y="352.33776" style="stroke: #000000; stroke-width: 0.8"/>
      </g>
     </g>
     <g id="text_40">
      <!-- 0.5 -->
      <g transform="translate(504.054087 365.825963) scale(0.095 -0.095)">
       <use xlink:href="#STIXGeneral-Regular-30"/>
       <use xlink:href="#STIXGeneral-Regular-2e" transform="translate(49.999985 0)"/>
       <use xlink:href="#STIXGeneral-Regular-35" transform="translate(74.999969 0)"/>
      </g>
     </g>
    </g>
    <g id="text_41">
     <!-- Mask ratio -->
     <g transform="translate(391.31019 379.058932) scale(0.105 -0.105)">
      <use xlink:href="#STIXGeneral-Regular-4d"/>
      <use xlink:href="#STIXGeneral-Regular-61" transform="translate(88.899994 0)"/>
      <use xlink:href="#STIXGeneral-Regular-73" transform="translate(133.299988 0)"/>
      <use xlink:href="#STIXGeneral-Regular-6b" transform="translate(172.199982 0)"/>
      <use xlink:href="#STIXGeneral-Regular-20" transform="translate(222.199966 0)"/>
      <use xlink:href="#STIXGeneral-Regular-72" transform="translate(247.199951 0)"/>
      <use xlink:href="#STIXGeneral-Regular-61" transform="translate(280.499939 0)"/>
      <use xlink:href="#STIXGeneral-Regular-74" transform="translate(324.899933 0)"/>
      <use xlink:href="#STIXGeneral-Regular-69" transform="translate(352.699921 0)"/>
      <use xlink:href="#STIXGeneral-Regular-6f" transform="translate(380.499908 0)"/>
     </g>
    </g>
   </g>
   <g id="matplotlib.axis_8">
    <g id="ytick_15">
     <g id="line2d_53">
      <path d="M 308.225 334.069589 
L 519.59952 334.069589 
" clip-path="url(#p0c5285721d)" style="fill: none; stroke: #d7dce2; stroke-opacity: 0.75; stroke-width: 0.8; stroke-linecap: square"/>
     </g>
     <g id="line2d_54">
      <g>
       <use xlink:href="#m7a328f0748" x="308.225" y="334.069589" style="stroke: #000000; stroke-width: 0.8"/>
      </g>
     </g>
     <g id="text_42">
      <!-- 0.300 -->
      <g transform="translate(279.85 337.31369) scale(0.095 -0.095)">
       <use xlink:href="#STIXGeneral-Regular-30"/>
       <use xlink:href="#STIXGeneral-Regular-2e" transform="translate(49.999985 0)"/>
       <use xlink:href="#STIXGeneral-Regular-33" transform="translate(74.999969 0)"/>
       <use xlink:href="#STIXGeneral-Regular-30" transform="translate(124.999954 0)"/>
       <use xlink:href="#STIXGeneral-Regular-30" transform="translate(174.999939 0)"/>
      </g>
     </g>
    </g>
    <g id="ytick_16">
     <g id="line2d_55">
      <path d="M 308.225 309.767759 
L 519.59952 309.767759 
" clip-path="url(#p0c5285721d)" style="fill: none; stroke: #d7dce2; stroke-opacity: 0.75; stroke-width: 0.8; stroke-linecap: square"/>
     </g>
     <g id="line2d_56">
      <g>
       <use xlink:href="#m7a328f0748" x="308.225" y="309.767759" style="stroke: #000000; stroke-width: 0.8"/>
      </g>
     </g>
     <g id="text_43">
      <!-- 0.325 -->
      <g transform="translate(279.85 313.01186) scale(0.095 -0.095)">
       <use xlink:href="#STIXGeneral-Regular-30"/>
       <use xlink:href="#STIXGeneral-Regular-2e" transform="translate(49.999985 0)"/>
       <use xlink:href="#STIXGeneral-Regular-33" transform="translate(74.999969 0)"/>
       <use xlink:href="#STIXGeneral-Regular-32" transform="translate(124.999954 0)"/>
       <use xlink:href="#STIXGeneral-Regular-35" transform="translate(174.999939 0)"/>
      </g>
     </g>
    </g>
    <g id="ytick_17">
     <g id="line2d_57">
      <path d="M 308.225 285.465929 
L 519.59952 285.465929 
" clip-path="url(#p0c5285721d)" style="fill: none; stroke: #d7dce2; stroke-opacity: 0.75; stroke-width: 0.8; stroke-linecap: square"/>
     </g>
     <g id="line2d_58">
      <g>
       <use xlink:href="#m7a328f0748" x="308.225" y="285.465929" style="stroke: #000000; stroke-width: 0.8"/>
      </g>
     </g>
     <g id="text_44">
      <!-- 0.350 -->
      <g transform="translate(279.85 288.710031) scale(0.095 -0.095)">
       <use xlink:href="#STIXGeneral-Regular-30"/>
       <use xlink:href="#STIXGeneral-Regular-2e" transform="translate(49.999985 0)"/>
       <use xlink:href="#STIXGeneral-Regular-33" transform="translate(74.999969 0)"/>
       <use xlink:href="#STIXGeneral-Regular-35" transform="translate(124.999954 0)"/>
       <use xlink:href="#STIXGeneral-Regular-30" transform="translate(174.999939 0)"/>
      </g>
     </g>
    </g>
    <g id="ytick_18">
     <g id="line2d_59">
      <path d="M 308.225 261.164099 
L 519.59952 261.164099 
" clip-path="url(#p0c5285721d)" style="fill: none; stroke: #d7dce2; stroke-opacity: 0.75; stroke-width: 0.8; stroke-linecap: square"/>
     </g>
     <g id="line2d_60">
      <g>
       <use xlink:href="#m7a328f0748" x="308.225" y="261.164099" style="stroke: #000000; stroke-width: 0.8"/>
      </g>
     </g>
     <g id="text_45">
      <!-- 0.375 -->
      <g transform="translate(279.85 264.408201) scale(0.095 -0.095)">
       <use xlink:href="#STIXGeneral-Regular-30"/>
       <use xlink:href="#STIXGeneral-Regular-2e" transform="translate(49.999985 0)"/>
       <use xlink:href="#STIXGeneral-Regular-33" transform="translate(74.999969 0)"/>
       <use xlink:href="#STIXGeneral-Regular-37" transform="translate(124.999954 0)"/>
       <use xlink:href="#STIXGeneral-Regular-35" transform="translate(174.999939 0)"/>
      </g>
     </g>
    </g>
    <g id="ytick_19">
     <g id="line2d_61">
      <path d="M 308.225 236.86227 
L 519.59952 236.86227 
" clip-path="url(#p0c5285721d)" style="fill: none; stroke: #d7dce2; stroke-opacity: 0.75; stroke-width: 0.8; stroke-linecap: square"/>
     </g>
     <g id="line2d_62">
      <g>
       <use xlink:href="#m7a328f0748" x="308.225" y="236.86227" style="stroke: #000000; stroke-width: 0.8"/>
      </g>
     </g>
     <g id="text_46">
      <!-- 0.400 -->
      <g transform="translate(279.85 240.106371) scale(0.095 -0.095)">
       <use xlink:href="#STIXGeneral-Regular-30"/>
       <use xlink:href="#STIXGeneral-Regular-2e" transform="translate(49.999985 0)"/>
       <use xlink:href="#STIXGeneral-Regular-34" transform="translate(74.999969 0)"/>
       <use xlink:href="#STIXGeneral-Regular-30" transform="translate(124.999954 0)"/>
       <use xlink:href="#STIXGeneral-Regular-30" transform="translate(174.999939 0)"/>
      </g>
     </g>
    </g>
    <g id="ytick_20">
     <g id="line2d_63">
      <path d="M 308.225 212.56044 
L 519.59952 212.56044 
" clip-path="url(#p0c5285721d)" style="fill: none; stroke: #d7dce2; stroke-opacity: 0.75; stroke-width: 0.8; stroke-linecap: square"/>
     </g>
     <g id="line2d_64">
      <g>
       <use xlink:href="#m7a328f0748" x="308.225" y="212.56044" style="stroke: #000000; stroke-width: 0.8"/>
      </g>
     </g>
     <g id="text_47">
      <!-- 0.425 -->
      <g transform="translate(279.85 215.804542) scale(0.095 -0.095)">
       <use xlink:href="#STIXGeneral-Regular-30"/>
       <use xlink:href="#STIXGeneral-Regular-2e" transform="translate(49.999985 0)"/>
       <use xlink:href="#STIXGeneral-Regular-34" transform="translate(74.999969 0)"/>
       <use xlink:href="#STIXGeneral-Regular-32" transform="translate(124.999954 0)"/>
       <use xlink:href="#STIXGeneral-Regular-35" transform="translate(174.999939 0)"/>
      </g>
     </g>
    </g>
    <g id="text_48">
     <!-- MAE -->
     <g transform="translate(273.571172 291.367199) rotate(-90) scale(0.105 -0.105)">
      <use xlink:href="#STIXGeneral-Regular-4d"/>
      <use xlink:href="#STIXGeneral-Regular-41" transform="translate(88.899994 0)"/>
      <use xlink:href="#STIXGeneral-Regular-45" transform="translate(161.099976 0)"/>
     </g>
    </g>
   </g>
   <g id="FillBetweenPolyCollection_7">
    <defs>
     <path id="m3ddd61d732" d="M 317.832933 -43.435141 
L 317.832933 -42.803293 
L 365.872596 -74.084608 
L 413.91226 -106.561574 
L 461.951924 -137.823447 
L 509.991587 -165.906642 
L 509.991587 -174.869157 
L 509.991587 -174.869157 
L 461.951924 -146.173556 
L 413.91226 -112.986977 
L 365.872596 -78.138154 
L 317.832933 -43.435141 
z
" style="stroke: #1f6f78; stroke-opacity: 0.08"/>
    </defs>
    <g clip-path="url(#p0c5285721d)">
     <use xlink:href="#m3ddd61d732" x="0" y="388.53776" style="fill: #1f6f78; fill-opacity: 0.08; stroke: #1f6f78; stroke-opacity: 0.08"/>
    </g>
   </g>
   <g id="FillBetweenPolyCollection_8"/>
   <g id="line2d_65">
    <path d="M 317.832933 345.102619 
L 365.872596 310.399606 
L 413.91226 275.550783 
L 461.951924 242.364204 
L 509.991587 213.668603 
" clip-path="url(#p0c5285721d)" style="fill: none; stroke-dasharray: 8,4; stroke-dashoffset: 0; stroke: #8c97a5; stroke-width: 2"/>
    <g clip-path="url(#p0c5285721d)">
     <use xlink:href="#m544783629b" x="317.832933" y="345.102619" style="fill: #ffffff; stroke: #8c97a5; stroke-width: 1.2"/>
     <use xlink:href="#m544783629b" x="365.872596" y="310.399606" style="fill: #ffffff; stroke: #8c97a5; stroke-width: 1.2"/>
     <use xlink:href="#m544783629b" x="413.91226" y="275.550783" style="fill: #ffffff; stroke: #8c97a5; stroke-width: 1.2"/>
     <use xlink:href="#m544783629b" x="461.951924" y="242.364204" style="fill: #ffffff; stroke: #8c97a5; stroke-width: 1.2"/>
     <use xlink:href="#m544783629b" x="509.991587" y="213.668603" style="fill: #ffffff; stroke: #8c97a5; stroke-width: 1.2"/>
    </g>
   </g>
   <g id="line2d_66">
    <path d="M 317.832933 345.734467 
L 365.872596 314.453152 
L 413.91226 281.976186 
L 461.951924 250.714313 
L 509.991587 222.631118 
" clip-path="url(#p0c5285721d)" style="fill: none; stroke: #1f6f78; stroke-width: 2.35; stroke-linecap: square"/>
    <g clip-path="url(#p0c5285721d)">
     <use xlink:href="#m759be70357" x="317.832933" y="345.734467" style="fill: #ffffff; stroke: #1f6f78; stroke-width: 1.1; stroke-linejoin: miter"/>
     <use xlink:href="#m759be70357" x="365.872596" y="314.453152" style="fill: #ffffff; stroke: #1f6f78; stroke-width: 1.1; stroke-linejoin: miter"/>
     <use xlink:href="#m759be70357" x="413.91226" y="281.976186" style="fill: #ffffff; stroke: #1f6f78; stroke-width: 1.1; stroke-linejoin: miter"/>
     <use xlink:href="#m759be70357" x="461.951924" y="250.714313" style="fill: #ffffff; stroke: #1f6f78; stroke-width: 1.1; stroke-linejoin: miter"/>
     <use xlink:href="#m759be70357" x="509.991587" y="222.631118" style="fill: #ffffff; stroke: #1f6f78; stroke-width: 1.1; stroke-linejoin: miter"/>
    </g>
   </g>
   <g id="patch_12">
    <path d="M 308.225 352.33776 
L 308.225 207.06531 
" style="fill: none; stroke: #404040; stroke-width: 0.9; stroke-linejoin: miter; stroke-linecap: square"/>
   </g>
   <g id="patch_13">
    <path d="M 308.225 352.33776 
L 519.59952 352.33776 
" style="fill: none; stroke: #404040; stroke-width: 0.9; stroke-linejoin: miter; stroke-linecap: square"/>
   </g>
  </g>
  <g id="legend_1">
   <g id="line2d_67">
    <path d="M 192.600268 14.325 
L 202.100268 14.325 
L 211.600268 14.325 
" style="fill: none; stroke-dasharray: 8,4; stroke-dashoffset: 0; stroke: #8c97a5; stroke-width: 2"/>
    <g>
     <use xlink:href="#m544783629b" x="202.100268" y="14.325" style="fill: #ffffff; stroke: #8c97a5; stroke-width: 1.2"/>
    </g>
   </g>
   <g id="text_49">
    <!-- no-CM -->
    <g transform="translate(219.200268 17.65) scale(0.095 -0.095)">
     <defs>
      <path id="STIXGeneral-Regular-2d" d="M 1824 1242 
L 250 1242 
L 250 1645 
L 1824 1645 
L 1824 1242 
z
" transform="scale(0.015625)"/>
      <path id="STIXGeneral-Regular-43" d="M 3930 838 
L 4051 723 
Q 3482 -90 2304 -90 
Q 1376 -90 794 480 
Q 179 1082 179 2080 
Q 179 3014 755 3661 
Q 1357 4326 2310 4326 
Q 2720 4326 3072 4230 
Q 3475 4115 3514 4115 
Q 3725 4115 3782 4326 
L 3910 4326 
L 3968 2874 
L 3821 2874 
Q 3718 3334 3488 3584 
Q 3034 4070 2458 4070 
Q 1747 4070 1334 3548 
Q 922 3027 922 2182 
Q 922 1152 1382 653 
Q 1811 192 2522 192 
Q 2944 192 3251 339 
Q 3558 486 3930 838 
z
" transform="scale(0.015625)"/>
     </defs>
     <use xlink:href="#STIXGeneral-Regular-6e"/>
     <use xlink:href="#STIXGeneral-Regular-6f" transform="translate(49.999985 0)"/>
     <use xlink:href="#STIXGeneral-Regular-2d" transform="translate(99.999969 0)"/>
     <use xlink:href="#STIXGeneral-Regular-43" transform="translate(133.299957 0)"/>
     <use xlink:href="#STIXGeneral-Regular-4d" transform="translate(199.999954 0)"/>
    </g>
   </g>
   <g id="line2d_68">
    <path d="M 265.646362 14.325 
L 275.146362 14.325 
L 284.646362 14.325 
" style="fill: none; stroke: #1f6f78; stroke-width: 2.35; stroke-linecap: square"/>
    <g>
     <use xlink:href="#m759be70357" x="275.146362" y="14.325" style="fill: #ffffff; stroke: #1f6f78; stroke-width: 1.1; stroke-linejoin: miter"/>
    </g>
   </g>
   <g id="text_50">
    <!-- CM (Ours) -->
    <g transform="translate(292.246362 17.65) scale(0.095 -0.095)">
     <defs>
      <path id="STIXGeneral-Regular-28" d="M 1946 -1030 
L 1869 -1133 
Q 1126 -710 716 32 
Q 307 774 307 1613 
Q 307 3386 1888 4326 
L 1946 4224 
Q 1293 3667 1075 3126 
Q 858 2586 858 1632 
Q 858 685 1082 96 
Q 1306 -493 1946 -1030 
z
" transform="scale(0.015625)"/>
      <path id="STIXGeneral-Regular-4f" d="M 4403 2118 
Q 4403 1133 3820 521 
Q 3238 -90 2310 -90 
Q 1376 -90 797 524 
Q 218 1139 218 2138 
Q 218 3110 797 3718 
Q 1376 4326 2310 4326 
Q 3245 4326 3824 3702 
Q 4403 3078 4403 2118 
z
M 3674 2157 
Q 3674 2701 3520 3133 
Q 3366 3565 3091 3795 
Q 2733 4096 2304 4096 
Q 1760 4096 1389 3667 
Q 1184 3437 1065 3011 
Q 947 2586 947 2125 
Q 947 960 1523 429 
Q 1837 141 2317 141 
Q 2816 141 3142 448 
Q 3674 960 3674 2157 
z
" transform="scale(0.015625)"/>
      <path id="STIXGeneral-Regular-75" d="M 3072 320 
L 3072 230 
Q 2573 96 2195 -58 
L 2163 -38 
L 2163 486 
L 2150 486 
Q 1747 -64 1235 -64 
Q 870 -64 662 160 
Q 454 384 454 755 
L 454 2362 
Q 454 2598 371 2688 
Q 288 2778 58 2790 
L 58 2880 
L 992 2880 
L 992 813 
Q 992 595 1123 451 
Q 1254 307 1446 307 
Q 1760 307 1984 506 
Q 2067 582 2099 649 
Q 2131 717 2131 877 
L 2131 2355 
Q 2131 2605 2041 2678 
Q 1952 2752 1658 2771 
L 1658 2880 
L 2669 2880 
L 2669 685 
Q 2669 461 2742 390 
Q 2816 320 3034 320 
L 3072 320 
z
" transform="scale(0.015625)"/>
      <path id="STIXGeneral-Regular-29" d="M 186 4224 
L 262 4326 
Q 992 3891 1408 3148 
Q 1824 2406 1824 1581 
Q 1824 -166 243 -1133 
L 186 -1030 
Q 845 -486 1059 54 
Q 1274 595 1274 1562 
Q 1274 2534 1059 3120 
Q 845 3706 186 4224 
z
" transform="scale(0.015625)"/>
     </defs>
     <use xlink:href="#STIXGeneral-Regular-43"/>
     <use xlink:href="#STIXGeneral-Regular-4d" transform="translate(66.699997 0)"/>
     <use xlink:href="#STIXGeneral-Regular-20" transform="translate(155.599991 0)"/>
     <use xlink:href="#STIXGeneral-Regular-28" transform="translate(180.599976 0)"/>
     <use xlink:href="#STIXGeneral-Regular-4f" transform="translate(213.899963 0)"/>
     <use xlink:href="#STIXGeneral-Regular-75" transform="translate(286.099945 0)"/>
     <use xlink:href="#STIXGeneral-Regular-72" transform="translate(336.09993 0)"/>
     <use xlink:href="#STIXGeneral-Regular-73" transform="translate(369.399918 0)"/>
     <use xlink:href="#STIXGeneral-Regular-29" transform="translate(408.299911 0)"/>
    </g>
   </g>
  </g>
 </g>
 <defs>
  <clipPath id="pfd6d39a0c4">
   <rect x="49.025" y="26.792381" width="211.37452" height="145.27245"/>
  </clipPath>
  <clipPath id="p2351a2ee57">
   <rect x="308.225" y="26.792381" width="211.37452" height="145.27245"/>
  </clipPath>
  <clipPath id="p6abba9ae03">
   <rect x="49.025" y="207.06531" width="211.37452" height="145.27245"/>
  </clipPath>
  <clipPath id="p0c5285721d">
   <rect x="308.225" y="207.06531" width="211.37452" height="145.27245"/>
  </clipPath>
 </defs>
</svg>
